<svg width="54" height="54" viewBox="0 0 54 54" fill="none" xmlns="http://www.w3.org/2000/svg">
<circle cx="27.2069" cy="26.8866" r="26.0546" fill="#5394CE"/>
<path fill-rule="evenodd" clip-rule="evenodd" d="M15.9414 23.3658C15.9414 20.2546 18.4636 17.7324 21.5748 17.7324H32.1375C35.2488 17.7324 37.7709 20.2546 37.7709 23.3658V26.8867C37.7709 29.998 35.2488 32.5202 32.1375 32.5202H26.807L24.0409 36.0406L21.2685 32.512C18.2997 32.3529 15.9414 29.8952 15.9414 26.8867V23.3658ZM21.5724 26.1819C22.3502 26.1819 22.9808 25.5514 22.9808 24.7736C22.9808 23.9958 22.3502 23.3652 21.5724 23.3652C20.7946 23.3652 20.1641 23.9958 20.1641 24.7736C20.1641 25.5514 20.7946 26.1819 21.5724 26.1819ZM28.6175 24.7736C28.6175 25.5514 27.987 26.1819 27.2091 26.1819C26.4313 26.1819 25.8008 25.5514 25.8008 24.7736C25.8008 23.9958 26.4313 23.3652 27.2091 23.3652C27.987 23.3652 28.6175 23.9958 28.6175 24.7736ZM32.8419 26.1819C33.6198 26.1819 34.2503 25.5514 34.2503 24.7736C34.2503 23.9958 33.6198 23.3652 32.8419 23.3652C32.0641 23.3652 31.4336 23.9958 31.4336 24.7736C31.4336 25.5514 32.0641 26.1819 32.8419 26.1819Z" fill="white"/>
<path fill-rule="evenodd" clip-rule="evenodd" d="M27.208 53.6464C41.9864 53.6464 53.9667 41.6661 53.9667 26.8877C53.9667 12.1092 41.9864 0.128906 27.208 0.128906C12.4295 0.128906 0.449219 12.1092 0.449219 26.8877C0.449219 41.6661 12.4295 53.6464 27.208 53.6464ZM27.2066 50.1261C40.0405 50.1261 50.4445 39.7222 50.4445 26.8883C50.4445 14.0543 40.0405 3.65039 27.2066 3.65039C14.3727 3.65039 3.96875 14.0543 3.96875 26.8883C3.96875 39.7222 14.3727 50.1261 27.2066 50.1261Z" fill="#5394CE"/>
</svg>
