<svg width="65" height="65" viewBox="0 0 65 65" fill="none" xmlns="http://www.w3.org/2000/svg">
<path d="M41.7505 41.6502V35.0301C41.7505 27.6904 32.2278 25.4622 25.0612 24.827V24.5938C24.3494 24.5938 23.5395 24.6235 22.6658 24.6682C21.792 24.6235 20.9821 24.6037 20.2753 24.5938V24.827C13.0841 25.4622 3.58594 27.6904 3.58594 35.0301V54.0368" stroke="#5394CE" stroke-width="2" stroke-linecap="round" stroke-linejoin="round" fill="none"/>
<path d="M23.8106 1.34375H21.4888C17.4305 1.34375 14.1406 4.66982 14.1406 8.77275V14.4053C14.1406 18.5082 17.4305 21.8343 21.4888 21.8343H23.8106C27.8689 21.8343 31.1588 18.5082 31.1588 14.4053V8.77275C31.1588 4.66982 27.8689 1.34375 23.8106 1.34375Z" stroke="#5394CE" stroke-width="2" stroke-linecap="round" stroke-linejoin="round" fill="none"/>
<path d="M54.1131 27.3086H63.6113L42.7399 48.4145C41.7009 49.4627 40.2931 50.0514 38.8252 50.0514C37.3574 50.0514 35.9496 49.4627 34.9106 48.4145L29.5111 42.9556C28.9974 42.4362 28.3875 42.0241 27.7163 41.7429C27.045 41.4618 26.3255 41.3171 25.599 41.3171C24.8724 41.3171 24.1529 41.4618 23.4816 41.7429C22.8104 42.0241 22.2005 42.4362 21.6868 42.9556L1.39453 63.5355" stroke="#5394CE" stroke-width="2" stroke-linecap="round" stroke-linejoin="round" fill="none"/>
<path d="M63.6094 36.0563V27.332" stroke="#5394CE" stroke-width="2" stroke-linecap="round" stroke-linejoin="round" fill="none"/>
</svg>
