<svg width="81" height="49" viewBox="0 0 81 49" fill="none" xmlns="http://www.w3.org/2000/svg">
<path d="M71.1073 40.3641C71.1073 42.1742 70.3908 43.9101 69.1153 45.1901C67.8398 46.47 66.1099 47.1891 64.3061 47.1891C63.4131 47.1891 62.5289 47.0125 61.7039 46.6695C60.8789 46.3265 60.1293 45.8237 59.498 45.1899C58.8667 44.5561 58.366 43.8037 58.0245 42.9757C57.683 42.1476 57.5074 41.2602 57.5078 40.3641C57.5076 40.0909 57.5245 39.818 57.5585 39.547C57.7563 37.8907 58.5522 36.3646 59.7957 35.2575C61.0391 34.1503 62.6438 33.539 64.3061 33.5391C65.9707 33.5361 67.5785 34.1461 68.8248 35.2535C70.0711 36.3608 70.8692 37.8885 71.0679 39.547C71.0981 39.8183 71.1113 40.0912 71.1073 40.3641V40.3641Z" stroke="#5394CE" stroke-width="2" stroke-linecap="round" stroke-linejoin="round" fill="none"/>
<path d="M79.0051 25.9083V36.013C79.0051 36.951 78.6338 37.8506 77.9728 38.5139C77.3118 39.1772 76.4153 39.5499 75.4806 39.5499H71.0545C70.8558 37.8914 70.0577 36.3637 68.8114 35.2563C67.5651 34.149 65.9573 33.539 64.2928 33.5419C62.6304 33.5418 61.0257 34.1532 59.7823 35.2603C58.5388 36.3675 57.7429 37.8936 57.5451 39.5499H54.9531V9.19922H68.4202C69.0562 9.20057 69.68 9.37444 70.2255 9.70243C70.7711 10.0304 71.2181 10.5003 71.5193 11.0624L78.5628 24.2515C78.8443 24.7587 78.9963 25.3279 79.0051 25.9083V25.9083Z" stroke="#5394CE" stroke-width="2" stroke-linecap="round" stroke-linejoin="round" fill="none"/>
<path d="M36.1648 40.3641C36.1648 42.1742 35.4483 43.9101 34.1728 45.1901C32.8973 46.47 31.1674 47.1891 29.3637 47.1891C27.5599 47.1891 25.83 46.47 24.5545 45.1901C23.279 43.9101 22.5625 42.1742 22.5625 40.3641C22.5623 40.0909 22.5792 39.818 22.6132 39.547C22.8119 37.8885 23.61 36.3608 24.8563 35.2535C26.1025 34.1461 27.7103 33.5361 29.3749 33.5391C31.0395 33.5361 32.6473 34.1461 33.8936 35.2535C35.1399 36.3608 35.938 37.8885 36.1366 39.547C36.1631 39.8185 36.1725 40.0914 36.1648 40.3641Z" stroke="#5394CE" stroke-width="2" stroke-linecap="round" stroke-linejoin="round" fill="none"/>
<path d="M54.967 5.52244V39.54H36.1131C35.9144 37.8816 35.1163 36.3539 33.87 35.2465C32.6238 34.1392 31.016 33.5292 29.3514 33.5321C27.6868 33.5292 26.079 34.1392 24.8327 35.2465C23.5864 36.3539 22.7883 37.8816 22.5897 39.54H17.1211C16.0167 39.54 14.9576 39.0998 14.1767 38.3161C13.3957 37.5325 12.957 36.4696 12.957 35.3613V32.4408C16.1282 32.4408 19.1695 31.1766 21.4119 28.9264C23.6542 26.6762 24.914 23.6242 24.914 20.4419C24.914 17.2596 23.6542 14.2076 21.4119 11.9574C19.1695 9.70716 16.1282 8.443 12.957 8.443V5.52244C12.957 4.41418 13.3957 3.35131 14.1767 2.56766C14.9576 1.784 16.0167 1.34375 17.1211 1.34375H50.8029C51.9073 1.34375 52.9665 1.784 53.7474 2.56766C54.5283 3.35131 54.967 4.41418 54.967 5.52244V5.52244Z" stroke="#5394CE" stroke-width="2" stroke-linecap="round" stroke-linejoin="round" fill="none"/>
<path d="M63.0859 14.7812V25.2393H78.945" stroke="#5394CE" stroke-width="2" stroke-linecap="round" stroke-linejoin="round" fill="none"/>
<path d="M12.957 32.4509C19.5606 32.4509 24.9139 27.0788 24.9139 20.452C24.9139 13.8252 19.5606 8.45312 12.957 8.45312C6.35332 8.45312 1 13.8252 1 20.452C1 27.0788 6.35332 32.4509 12.957 32.4509Z" stroke="#5394CE" stroke-width="2" stroke-linecap="round" stroke-linejoin="round" fill="none"/>
<path d="M8.58594 20.0666L12.3866 23.8806L19.4075 16.8379" stroke="#5394CE" stroke-width="2" stroke-linecap="round" stroke-linejoin="round" fill="none"/>
</svg>
