<svg width="64" height="62" viewBox="0 0 64 62" fill="none" xmlns="http://www.w3.org/2000/svg">
<path d="M17.2643 28.3555H3.77409C2.242 28.3555 1 29.5975 1 31.1296V58.1598C1 59.6919 2.242 60.9339 3.77409 60.9339H17.2643C18.7964 60.9339 20.0384 59.6919 20.0384 58.1598V31.1296C20.0384 29.5975 18.7964 28.3555 17.2643 28.3555Z" stroke="#5394CE" stroke-width="2" stroke-linecap="round" stroke-linejoin="round" fill="none"/>
<path d="M20.0498 56.8256C20.0498 56.8256 22.6556 60.9338 29.0391 60.9338H49.1871C49.1871 60.9338 55.3525 59.793 53.1519 54.2884C53.1519 54.2884 57.5905 53.0416 57.9957 49.6629C58.3261 46.9137 56.4559 45.1495 55.0283 45.1495C55.0283 45.1495 59.6477 45.5921 60.2025 41.4091C60.589 38.4605 59.311 37.3446 57.5593 36.4532C57.5593 36.4532 62.1849 35.7924 62.1849 31.7154C62.1849 27.6384 59.9781 26.6535 57.7775 26.6535H38.1718L42.4109 17.6517C43.0984 16.1822 43.4558 14.5799 43.4582 12.9575V6.33088C43.4582 5.00821 42.9327 3.73971 41.9975 2.80444C41.0622 1.86917 39.7937 1.34375 38.471 1.34375C37.2845 1.34377 36.1369 1.76682 35.2343 2.53692C34.3316 3.30702 33.7331 4.3737 33.5462 5.54541L32.8107 10.0712C32.4282 12.486 31.4346 14.7628 29.9243 16.6854L19.6758 29.7517" stroke="#5394CE" stroke-width="2" stroke-linecap="round" stroke-linejoin="round" fill="none"/>
</svg>
