<svg width="59" height="64" viewBox="0 0 59 64" fill="none" xmlns="http://www.w3.org/2000/svg">
<path d="M23.7645 23.4266L36.2325 18.2846C36.2325 18.2846 39.8531 16.2861 38.3264 13.1479C36.7997 10.0097 34.234 10.8631 33.0254 11.3402L17.891 17.1714C17.891 17.1714 1.01783 16.1907 1.01783 24.1899V38.3702C1.01783 38.3702 0.445319 45.0335 5.78875 45.0335L7.41086 57.7878C7.41086 57.7878 8.26433 62.4527 13.8834 62.4527C19.5025 62.4527 20.4567 60.2687 21.114 57.8832C21.6706 55.8158 23.7645 23.4266 23.7645 23.4266Z" stroke="#5394CE" stroke-width="2" stroke-miterlimit="10" fill="none"/>
<path d="M15.4622 1.34375H13.8772C11.093 1.34375 8.83594 3.60081 8.83594 6.38502V10.2018C8.83594 12.986 11.093 15.243 13.8772 15.243H15.4622C18.2464 15.243 20.5035 12.986 20.5035 10.2018V6.38502C20.5035 3.60081 18.2464 1.34375 15.4622 1.34375Z" stroke="#5394CE" stroke-width="2" stroke-miterlimit="10" fill="none"/>
<path d="M53.9778 24.3281H45.5439C43.5823 24.3281 41.9922 25.9183 41.9922 27.8798V58.9014C41.9922 60.8629 43.5823 62.4531 45.5439 62.4531H53.9778C55.9393 62.4531 57.5295 60.8629 57.5295 58.9014V27.8798C57.5295 25.9183 55.9393 24.3281 53.9778 24.3281Z" stroke="#5394CE" stroke-width="2" stroke-miterlimit="10" fill="none"/>
<path d="M55.5628 16.5684H43.9589C42.8727 16.5684 41.9922 17.4489 41.9922 18.535C41.9922 19.6212 42.8727 20.5017 43.9589 20.5017H55.5628C56.649 20.5017 57.5295 19.6212 57.5295 18.535C57.5295 17.4489 56.649 16.5684 55.5628 16.5684Z" stroke="#5394CE" stroke-width="2" stroke-miterlimit="10" fill="none"/>
<path d="M52.5085 32.8164H47.0008C46.4826 32.8164 46.0625 33.2365 46.0625 33.7547V37.5131C46.0625 38.0313 46.4826 38.4514 47.0008 38.4514H52.5085C53.0267 38.4514 53.4468 38.0313 53.4468 37.5131V33.7547C53.4468 33.2365 53.0267 32.8164 52.5085 32.8164Z" stroke="#5394CE" stroke-width="2" stroke-miterlimit="10" fill="none"/>
</svg>
