<svg width="25" height="25" viewBox="0 0 25 25" fill="none" xmlns="http://www.w3.org/2000/svg">
<path d="M0 25C0.392463 23.8385 0.772368 22.705 1.15541 21.5716C1.47566 20.6193 1.79591 19.67 2.12872 18.7208C2.18838 18.546 2.16954 18.4148 2.07849 18.2587C1.22449 16.7787 0.690736 15.1925 0.521191 13.4908C0.185243 10.1311 1.0675 7.12106 3.19936 4.49823C5.08005 2.18764 7.50704 0.713862 10.4521 0.211154C14.9011 -0.547593 18.7158 0.741964 21.8021 4.02362C23.3626 5.68162 24.3422 7.6706 24.744 9.90937C25.3437 13.2472 24.7126 16.3509 22.7566 19.1424C20.9324 21.7464 18.4301 23.392 15.3186 24.0914C13.9246 24.4036 12.5086 24.4567 11.0863 24.2631C9.60751 24.0633 8.21348 23.6199 6.89794 22.9205C6.82258 22.8799 6.70014 22.883 6.61536 22.908C4.44897 23.5918 2.28571 24.285 0.122449 24.975C0.0941912 24.9875 0.0659339 24.9875 0 25ZM3.17738 21.887C3.27158 21.862 3.32809 21.8495 3.38147 21.8308C4.55572 21.4561 5.73311 21.0845 6.90736 20.7067C7.03609 20.6661 7.13028 20.6692 7.24645 20.7473C8.61222 21.6153 10.1067 22.1305 11.7174 22.2835C13.4442 22.449 15.1083 22.1867 16.7095 21.5123C20.9262 19.7387 23.4568 15.2799 22.8006 10.768C22.4709 8.50429 21.5007 6.55278 19.8555 4.96971C17.4254 2.6279 14.496 1.69742 11.1522 2.16266C9.33121 2.41558 7.68914 3.1431 6.27942 4.3265C3.45682 6.69329 2.21349 9.71578 2.58398 13.3753C2.75352 15.0645 3.37205 16.5945 4.33908 17.9871C4.39245 18.0651 4.41129 18.2056 4.38303 18.2993C4.2543 18.7271 4.10046 19.1486 3.95603 19.5732C3.70172 20.332 3.44426 21.0907 3.17738 21.887Z" fill="currentColor"/>
<path d="M8.7237 6.23213C8.94974 6.24774 9.17264 6.26022 9.39868 6.27584C9.64984 6.29145 9.76286 6.47566 9.84135 6.67235C10.0391 7.16878 10.2212 7.67145 10.4096 8.171C10.5383 8.5082 10.6639 8.84852 10.7957 9.18571C10.8711 9.37929 10.8931 9.57286 10.7644 9.74146C10.5006 10.0849 10.2401 10.4315 9.95123 10.753C9.70949 11.0216 9.6781 11.1277 9.84763 11.4399C10.7989 13.1884 12.1834 14.4716 14.0137 15.2709C14.2649 15.3801 14.4187 15.3676 14.6039 15.1647C14.943 14.7963 15.2758 14.4216 15.596 14.0376C15.8377 13.7472 15.9633 13.6785 16.3055 13.8503C17.1626 14.278 18.0071 14.7307 18.8548 15.1741C19.0212 15.2615 19.0902 15.402 19.0714 15.5893C18.9521 16.8944 18.6319 17.472 17.2254 18.0496C16.5284 18.3368 15.7938 18.3805 15.0529 18.1245C13.8567 17.7124 12.6637 17.2909 11.6057 16.5853C10.1992 15.6486 9.08787 14.4216 8.14603 13.0354C7.64372 12.2923 7.1414 11.5461 6.84315 10.6906C6.47897 9.6478 6.45385 8.62372 6.95931 7.61525C7.17907 7.17502 7.4993 6.80973 7.8729 6.49127C8.11464 6.28208 8.40033 6.19154 8.7237 6.23213Z" fill="currentColor"/>
</svg>
