<svg width="24" height="29" viewBox="0 0 24 29" fill="none" xmlns="http://www.w3.org/2000/svg">
<path d="M12.4764 0C12.6683 0.0182883 12.8603 0.0393902 13.0522 0.054865C18.143 0.468462 22.4894 4.15778 23.6611 9.05483C23.9487 10.2576 24.0643 11.4745 23.9651 12.7055C23.7318 15.6098 22.5972 18.1209 20.5135 20.1917C17.7177 22.9708 14.9026 25.731 12.096 28.4988C12.0661 28.5284 12.0347 28.5551 12.0183 28.5706C11.5544 28.1253 11.0956 27.685 10.6296 27.2376C10.6724 27.1933 10.7103 27.1525 10.7495 27.1138C13.5125 24.3882 16.2748 21.6618 19.0399 18.9383C20.4657 17.5336 21.4312 15.8743 21.8251 13.923C22.4773 10.6895 21.7216 7.79364 19.5352 5.29588C17.9845 3.52543 16.0051 2.45415 13.6674 2.049C9.44651 1.31746 5.15786 3.39881 3.12985 7.15144C2.45123 8.407 2.04663 9.74134 1.96314 11.1629C1.79045 14.0989 2.73595 16.636 4.79393 18.7652C5.09435 19.0761 5.23493 19.4173 5.10577 19.8323C4.89384 20.5139 4.03682 20.7129 3.51162 20.2065C3.01354 19.7254 2.56755 19.1999 2.16651 18.6372C1.10185 17.1446 0.395396 15.4994 0.139933 13.6937C-0.437357 9.6077 0.770742 6.09915 3.77922 3.22578C5.34197 1.73317 7.21798 0.779364 9.33947 0.299647C9.99026 0.152637 10.6489 0.0590853 11.3168 0.0281359C11.3817 0.0253223 11.446 0.010551 11.5102 0.000703397C11.8327 0 12.1546 0 12.4764 0Z" fill="#B3B3B3"/>
<path d="M9.47501 14.1387C9.70907 14.1387 9.91601 14.1387 10.1336 14.1387C10.1336 14.5059 10.1336 14.8625 10.1336 15.2367C10.088 15.2396 10.0387 15.2445 9.98879 15.2445C8.59302 15.2452 7.19725 15.2431 5.80147 15.2473C5.67874 15.248 5.63664 15.2185 5.64092 15.0925C5.65019 14.7809 5.64377 14.4693 5.64377 14.1401C5.89281 14.1401 6.12758 14.1324 6.36235 14.143C6.48366 14.1486 6.5329 14.1022 6.575 13.996C7.52692 11.6079 8.48313 9.222 9.4379 6.83537C9.45503 6.79317 9.47358 6.75167 9.50213 6.68555C10.3499 8.14158 11.1855 9.57792 12.0361 11.0403C12.8795 9.58284 13.7116 8.14509 14.5543 6.68836C14.5836 6.75378 14.6071 6.8002 14.6264 6.84803C15.584 9.22833 16.5416 11.6086 17.495 13.9903C17.5399 14.1015 17.5906 14.1493 17.7176 14.143C17.9488 14.131 18.1807 14.1394 18.4248 14.1394C18.4248 14.5066 18.4248 14.8661 18.4248 15.2353C16.9291 15.2353 15.4363 15.2353 13.9292 15.2353C13.9292 14.8724 13.9292 14.5137 13.9292 14.1409C14.1461 14.1409 14.3574 14.1409 14.5971 14.1409C14.3766 13.5113 14.1633 12.9022 13.9378 12.2586C13.2963 13.2919 12.6704 14.2991 12.0354 15.3212C11.4024 14.3019 10.7787 13.2975 10.1336 12.2593C9.91101 12.8994 9.69765 13.505 9.47501 14.1387Z" fill="#B3B3B3"/>
</svg>
