<svg width="25" height="24" viewBox="0 0 25 24" fill="none" xmlns="http://www.w3.org/2000/svg">
<circle cx="12.9163" cy="11.971" r="11.971" fill="#CEA271"/>
<path d="M7.68753 8.48621C7.68285 6.85126 8.23481 5.78073 9.52137 5.14809C10.2767 4.77645 10.7417 4.86853 11.2957 5.50581C11.5124 5.75696 11.7 6.03139 11.855 6.32395C12.2838 7.13215 12.1949 7.76877 11.5539 8.43123C11.2848 8.69474 10.9951 8.93684 10.6875 9.15529C10.2065 9.51699 10.0707 9.98866 10.248 10.5352C10.6544 11.8028 11.3726 12.9506 12.338 13.8753C12.8338 14.3509 13.2486 14.3781 13.9257 14.0297C14.5084 13.7289 15.1005 13.4831 15.7736 13.5931C15.9743 13.6256 16.1991 13.6872 16.3543 13.8091C16.9397 14.2688 17.3057 14.8803 17.4917 15.5944C17.6027 16.017 17.4749 16.3681 17.1732 16.6821C16.3322 17.5579 15.0015 17.8428 13.7812 17.3963C13.0698 17.131 12.4229 16.7204 11.8824 16.1913C9.99104 14.3735 8.63623 12.2238 7.90764 9.70778C7.76915 9.23545 7.73035 8.73728 7.68753 8.48621Z" fill="white"/>
</svg>
