<svg width="385" height="71" viewBox="0 0 385 71" fill="none" xmlns="http://www.w3.org/2000/svg">
<path d="M92.3651 69.2853H90.4825V60.1612H87.2266V58.5371H95.621V60.1977H92.3651V69.2853Z" fill="#484E5B"/>
<path d="M120.695 69.2853H113.328V58.5371H120.695V60.1977H115.238V62.9988H120.604V64.6594H115.238V67.6612H120.695V69.2853Z" fill="#484E5B"/>
<path d="M143.923 69.4854C143.181 69.5072 142.443 69.3805 141.751 69.1126C141.06 68.8447 140.428 68.441 139.894 67.9252C138.861 66.8434 138.285 65.4036 138.285 63.906C138.285 62.4084 138.861 60.9686 139.894 59.8869C140.428 59.371 141.06 58.9674 141.751 58.6995C142.443 58.4316 143.181 58.3048 143.923 58.3266C144.794 58.3014 145.656 58.5138 146.417 58.9411C147.178 59.3685 147.809 59.9949 148.243 60.7536L146.633 61.5748C146.355 61.1076 145.964 60.7185 145.496 60.4434C145.022 60.1552 144.477 60.0037 143.923 60.0055C143.428 59.9939 142.936 60.0862 142.479 60.2763C142.021 60.4664 141.609 60.7502 141.267 61.1095C140.587 61.8815 140.212 62.876 140.212 63.906C140.212 64.936 140.587 65.9305 141.267 66.7025C141.608 67.0632 142.02 67.3479 142.478 67.5381C142.935 67.7284 143.428 67.8198 143.923 67.8066C144.48 67.811 145.028 67.6593 145.505 67.3686C145.97 67.0933 146.358 66.704 146.633 66.2372L148.243 67.0584C147.806 67.8151 147.175 68.4399 146.415 68.867C145.655 69.2941 144.794 69.5077 143.923 69.4854Z" fill="#484E5B"/>
<path d="M175.266 69.2853H173.383V64.5773H167.79V69.2853H165.898V58.5371H167.79V62.9532H173.383V58.5371H175.266V69.2853Z" fill="#484E5B"/>
<path d="M202.977 69.2853H201.158L195.547 61.5846V69.2853H193.664V58.5371H195.592L201.049 66.0189V58.5371H202.932L202.977 69.2853Z" fill="#484E5B"/>
<path d="M230.354 67.8972C229.287 68.9111 227.873 69.4761 226.403 69.4761C224.933 69.4761 223.518 68.9111 222.451 67.8972C221.457 66.8032 220.906 65.3764 220.906 63.8963C220.906 62.4161 221.457 60.9893 222.451 59.8953C223.518 58.8814 224.933 58.3164 226.403 58.3164C227.873 58.3164 229.287 58.8814 230.354 59.8953C231.348 60.9893 231.899 62.4161 231.899 63.8963C231.899 65.3764 231.348 66.8032 230.354 67.8972ZM226.407 67.7968C226.892 67.8139 227.374 67.723 227.819 67.5305C228.264 67.338 228.661 67.0488 228.981 66.6837C229.622 65.8954 229.972 64.9091 229.972 63.8917C229.972 62.8742 229.622 61.888 228.981 61.0997C228.647 60.7509 228.245 60.4734 227.802 60.2838C227.358 60.0943 226.88 59.9966 226.398 59.9966C225.916 59.9966 225.438 60.0943 224.994 60.2838C224.551 60.4734 224.149 60.7509 223.815 61.0997C223.184 61.8944 222.841 62.8803 222.841 63.8963C222.841 64.9122 223.184 65.8981 223.815 66.6928C224.138 67.0582 224.539 67.3468 224.987 67.5377C225.435 67.7287 225.92 67.8172 226.407 67.7968Z" fill="#484E5B"/>
<path d="M256.474 69.2853H249.844V58.5371H251.735V67.6612H256.474V69.2853Z" fill="#484E5B"/>
<path d="M283.264 67.8972C282.197 68.9111 280.783 69.4761 279.313 69.4761C277.843 69.4761 276.429 68.9111 275.361 67.8972C274.367 66.8032 273.816 65.3764 273.816 63.8963C273.816 62.4161 274.367 60.9893 275.361 59.8953C276.429 58.8814 277.843 58.3164 279.313 58.3164C280.783 58.3164 282.197 58.8814 283.264 59.8953C284.258 60.9893 284.809 62.4161 284.809 63.8963C284.809 65.3764 284.258 66.8032 283.264 67.8972ZM279.308 67.7968C279.794 67.8134 280.277 67.7222 280.724 67.5298C281.17 67.3374 281.569 67.0485 281.891 66.6837C282.528 65.8932 282.875 64.9078 282.875 63.8917C282.875 62.8756 282.528 61.8902 281.891 61.0997C281.557 60.7509 281.156 60.4734 280.712 60.2838C280.268 60.0943 279.791 59.9966 279.308 59.9966C278.826 59.9966 278.348 60.0943 277.905 60.2838C277.461 60.4734 277.06 60.7509 276.725 61.0997C276.094 61.8944 275.751 62.8803 275.751 63.8963C275.751 64.9122 276.094 65.8981 276.725 66.6928C277.047 67.058 277.446 67.3465 277.892 67.5375C278.339 67.7285 278.823 67.8171 279.308 67.7968Z" fill="#484E5B"/>
<path d="M307.915 69.4845C307.178 69.5036 306.444 69.3764 305.755 69.1102C305.067 68.844 304.438 68.4441 303.904 67.9334C302.861 66.8483 302.277 65.3993 302.277 63.8914C302.277 62.3836 302.861 60.9345 303.904 59.8495C304.986 58.8248 306.428 58.2705 307.915 58.3075C308.77 58.2788 309.618 58.471 310.378 58.8657C311.137 59.2603 311.783 59.8441 312.253 60.5611L310.707 61.4735C310.394 61.0425 309.987 60.6897 309.516 60.4425C309.027 60.1675 308.475 60.0259 307.915 60.0319C307.42 60.0204 306.928 60.1126 306.471 60.3027C306.014 60.4928 305.601 60.7766 305.259 61.1359C304.579 61.9094 304.204 62.9055 304.204 63.937C304.204 64.9686 304.579 65.9647 305.259 66.7381C305.599 67.1 306.012 67.3861 306.469 67.5779C306.927 67.7696 307.419 67.8628 307.915 67.8513C308.412 67.8515 308.903 67.7523 309.361 67.5593C309.764 67.3951 310.136 67.1637 310.462 66.875V65.1962H307.251V63.5265H312.353V67.5776C311.797 68.2008 311.111 68.6944 310.344 69.0238C309.578 69.3532 308.749 69.5104 307.915 69.4845Z" fill="#484E5B"/>
<path d="M332.325 69.2853H330.434V58.5371H332.325V69.2853Z" fill="#484E5B"/>
<path d="M358.07 69.2853H350.703V58.5371H358.07V60.1977H352.613V62.9988H357.979V64.6594H352.613V67.6612H358.07V69.2853Z" fill="#484E5B"/>
<path d="M379.836 69.4851C379.027 69.5296 378.217 69.3995 377.463 69.1036C376.708 68.8077 376.025 68.3528 375.461 67.7698L376.516 66.319C376.943 66.7975 377.468 67.178 378.055 67.4347C378.642 67.6913 379.277 67.8181 379.917 67.8063C380.491 67.8478 381.061 67.6934 381.536 67.3683C381.699 67.2493 381.831 67.0944 381.925 66.9156C382.018 66.7368 382.068 66.5389 382.073 66.3373C382.068 66.1288 382.005 65.926 381.891 65.7517C381.777 65.5775 381.616 65.439 381.427 65.3519C380.934 65.0896 380.408 64.8962 379.863 64.7771C379.254 64.6402 378.635 64.476 378.044 64.2752C377.442 64.0922 376.899 63.7522 376.47 63.2898C376.249 63.043 376.079 62.7546 375.97 62.4414C375.861 62.1282 375.814 61.7963 375.834 61.465C375.826 61.0294 375.92 60.598 376.108 60.2052C376.296 59.8124 376.573 59.469 376.916 59.2022C377.723 58.5743 378.724 58.2513 379.745 58.2898C380.484 58.2595 381.221 58.377 381.914 58.6355C382.608 58.8939 383.243 59.2882 383.783 59.7953L382.673 61.2734C382.266 60.8659 381.78 60.5463 381.245 60.3345C380.71 60.1226 380.138 60.023 379.563 60.0417C379.09 60.0189 378.622 60.1467 378.226 60.4066C378.07 60.5162 377.944 60.6627 377.858 60.833C377.773 61.0033 377.73 61.1922 377.735 61.3829C377.735 61.5162 377.766 61.6476 377.826 61.7665C377.886 61.8853 377.973 61.9884 378.08 62.0672C378.356 62.2673 378.663 62.4185 378.99 62.5143C379.354 62.6238 379.763 62.7333 380.208 62.8427C380.654 62.9522 381.118 63.08 381.545 63.2351C381.969 63.386 382.378 63.5785 382.764 63.8099C383.137 64.0353 383.449 64.3485 383.674 64.7223C383.911 65.1582 384.03 65.649 384.019 66.1457C384.032 66.597 383.945 67.0456 383.764 67.459C383.583 67.8724 383.313 68.2403 382.973 68.5362C382.081 69.2327 380.963 69.571 379.836 69.4851Z" fill="#484E5B"/>
<path d="M135.747 37.2863H132.191V31.2188H135.747V37.2863Z" fill="currentColor"/>
<path d="M117.395 19.4131C117.462 21.653 117.085 23.8839 116.286 25.9765C115.486 28.069 114.281 29.9814 112.739 31.6028C109.101 35.3985 103.929 37.2932 97.223 37.2872H87.2188V1.62109H96.9684C104.432 1.62109 109.91 3.67705 113.403 7.78898C116.11 11.0412 117.531 15.1782 117.395 19.4131ZM113.839 19.4131C113.939 15.9599 112.759 12.5923 110.529 9.96051C107.582 6.55419 103.065 4.85103 96.9775 4.85103H90.7839V34.0481H97.223C102.68 34.0481 106.924 32.4909 109.956 29.3766C111.232 28.0592 112.233 26.4991 112.9 24.7881C113.567 23.0771 113.886 21.2496 113.839 19.4131Z" fill="currentColor"/>
<path d="M133.429 13.912C131.595 13.8669 129.812 14.5187 128.436 15.7368C127.616 16.4817 126.971 17.4003 126.548 18.4259C126.125 19.4516 125.934 20.5588 125.99 21.6675V37.2788H122.434V10.9284H125.799V14.7423C126.512 13.3769 127.605 12.2485 128.945 11.4941C130.313 10.7211 131.86 10.3245 133.429 10.3445V13.912Z" fill="currentColor"/>
<path d="M188.907 19.3583C188.981 21.8286 188.542 24.2873 187.616 26.5777C186.691 28.8681 185.3 30.94 183.532 32.6612C181.769 34.3901 179.678 35.7461 177.383 36.6489C175.088 37.5517 172.636 37.9828 170.172 37.9167C166.83 37.9574 163.543 37.0564 160.686 35.3163C157.815 33.5467 155.481 31.0224 153.938 28.0171H158.167C159.485 30.1759 161.374 31.9256 163.623 33.0718C165.654 34.1451 167.913 34.7087 170.208 34.7141C173.954 34.7637 177.581 33.3955 180.367 30.882C183.249 28.3523 185.012 24.7787 185.269 20.9459H164.478V17.7251H185.269C184.904 14.0761 183.23 10.6845 180.558 8.1813C177.835 5.5707 174.192 4.14993 170.426 4.23057C168.005 4.20971 165.612 4.75976 163.442 5.83641C161.281 6.9244 159.49 8.62914 158.294 10.736H154.074C155.472 7.73354 157.738 5.22214 160.577 3.52801C163.578 1.79872 166.993 0.924806 170.454 1.00064C176.22 1.00064 180.846 3.02315 184.332 7.06816C187.323 10.4543 188.953 14.8343 188.907 19.3583Z" fill="currentColor"/>
<path d="M227.895 27.9891C226.334 30.9845 224 33.5051 221.138 35.2884C218.284 37.048 214.992 37.9592 211.643 37.9161C209.202 37.985 206.772 37.5646 204.495 36.6794C202.218 35.7942 200.14 34.4621 198.383 32.761C196.591 31.033 195.179 28.9476 194.239 26.6391C193.3 24.3306 192.852 21.8502 192.926 19.3577C192.859 16.9198 193.296 14.4944 194.21 12.2346C195.124 9.9748 196.496 7.92962 198.237 6.22816C199.961 4.51306 202.014 3.16572 204.271 2.26723C206.528 1.36875 208.943 0.937711 211.37 1.00006C214.818 0.935765 218.218 1.81925 221.202 3.5548C224.051 5.23975 226.335 7.74015 227.759 10.7355H223.53C222.599 9.2619 221.409 7.96974 220.019 6.92159C217.095 4.90696 213.564 3.97625 210.031 4.28925C206.497 4.60226 203.183 6.13944 200.656 8.63692C199.291 10.0599 198.219 11.7395 197.503 13.5794C196.786 15.4192 196.439 17.3829 196.482 19.3577C196.445 21.3708 196.812 23.3707 197.559 25.2393C198.306 27.1078 199.42 28.807 200.834 30.2362C202.247 31.6654 203.932 32.7956 205.789 33.5599C207.645 34.3243 209.636 34.7073 211.643 34.6862C213.918 34.6939 216.162 34.1492 218.182 33.0986C220.441 31.9403 222.331 30.1702 223.639 27.9891H227.895Z" fill="currentColor"/>
<path d="M256.563 4.85102H245.858V37.2872H242.302V4.85102H231.598V1.62109H256.563V4.85102Z" fill="currentColor"/>
<path d="M315.226 4.85102H304.521V37.2872H300.974V4.85102H290.27V1.62109H315.226V4.85102Z" fill="currentColor"/>
<path d="M283.374 37.2872H263.875V1.62109H283.374V4.85102H267.431V17.7251H282.847V20.9459H267.431V34.0572H283.374V37.2872Z" fill="currentColor"/>
<path d="M349.603 37.2872H346.047V6.68496L324.911 37.2872H321.164V1.62109H324.72V32.2324L345.856 1.62109H349.603V37.2872Z" fill="currentColor"/>
<path d="M363.044 37.2872H359.488V1.62109H363.044V37.2872ZM383.962 37.2872H379.542L365.473 19.039L379.16 1.63934H383.389L369.72 18.6375L383.962 37.2872Z" fill="currentColor"/>
<path d="M35.1054 38.7648C34.5779 39.741 36.0149 40.9637 36.9243 40.6899C37.6428 40.471 58.2971 31.1918 65.1182 12.2775C66.3733 8.79214 62.2897 6.22827 59.2339 9.71367C51.7307 31.8669 37.0244 35.2155 35.1054 38.7648Z" fill="currentColor"/>
<path d="M65.2166 23.4739C72.0923 30.8462 71.0828 45.8097 60.3327 49.0214C54.1847 51.0834 46.354 46.7677 45.6992 40.1801C45.6992 39.9247 46.063 39.7239 46.163 39.952C48.082 44.359 57.004 48.2732 63.0885 42.4429C67.7268 37.9995 68.0542 29.2586 64.8165 23.8298C64.6255 23.5834 65.0075 23.255 65.2166 23.4922V23.4739Z" fill="currentColor"/>
<path d="M39.9181 44.8492C35.9254 48.0517 32.0238 53.0609 32.9787 58.3711C33.124 59.5556 33.5319 60.6925 34.1725 61.6983C34.813 62.704 35.6699 63.5531 36.6803 64.1831C38.7299 65.3119 40.999 65.9817 43.3314 66.1463C45.6637 66.3108 48.0039 65.9663 50.1908 65.1364C52.3777 64.3065 54.3593 63.011 55.9992 61.3391C57.6391 59.6671 58.8984 57.6584 59.6902 55.4514C60.7155 52.2935 61.4611 49.051 61.9184 45.7616C62.4917 45.2133 63.1374 44.7467 63.8374 44.3747C63.885 44.3845 63.9292 44.4064 63.9659 44.4384C64.0025 44.4704 64.0303 44.5113 64.0466 44.5572C65.0288 47.3492 65.8655 41.3912 65.7655 44.466C65.338 57.9149 59.8448 64.6393 52.9509 67.6777C46.2572 70.6339 36.6894 71.0171 32.1693 64.2835C31.9228 63.9511 31.7182 63.5895 31.56 63.2068L31.0506 62.0937L30.7323 60.9349C30.2752 59.0452 30.2564 57.0754 30.6774 55.1772C31.0984 53.279 31.9479 51.5031 33.1606 49.986C34.9182 47.6781 37.1203 45.7481 39.6361 44.3109C39.6952 44.2754 39.7657 44.2645 39.8327 44.2804C39.8997 44.2964 39.9578 44.338 39.9946 44.3964C40.0314 44.4547 40.044 44.5252 40.0297 44.5928C40.0154 44.6603 39.9753 44.7196 39.9181 44.7579V44.8492Z" fill="currentColor"/>
<path d="M32.4221 43.6281C25.8375 40.7905 14.9692 40.4802 11.7587 48.0989C10.5309 51.3379 11.404 55.535 13.2957 58.4729C14.6916 60.4282 16.4445 62.1001 18.4616 63.4C23.9185 67.0496 30.7487 66.4474 37.2423 66.2923C37.5061 66.2923 44.4545 67.2503 44.218 67.3781C32.2493 74.6773 11.1312 70.9456 7.70243 56.1828C5.27412 44.8872 13.996 38.2722 24.6188 40.1791C27.4589 40.6845 30.1852 41.6982 32.6677 43.1719C32.728 43.2045 32.7728 43.2599 32.7925 43.3258C32.8121 43.3916 32.8048 43.4626 32.7722 43.5231C32.7397 43.5836 32.6845 43.6287 32.6188 43.6483C32.5532 43.668 32.4824 43.6607 32.4221 43.6281Z" fill="currentColor"/>
<path d="M32.4779 38.409C30.8226 30.8542 28.6035 22.2958 21.2276 18.7101C19.2031 17.7556 16.9252 17.4835 14.7339 17.9345C9.65904 19.0112 5.52999 23.482 4.21125 28.5093C4.0251 29.1972 3.89432 29.899 3.82018 30.6079C3.09259 37.4418 4.52957 44.732 9.60447 49.6864C9.84093 49.9053 9.50442 50.2977 9.25886 50.0787C2.67423 45.0604 0.164065 35.8634 1.22816 27.8798C3.32905 14.4309 20.9002 6.77577 29.8586 18.8469C33.9785 24.6134 34.6061 31.8579 33.0054 38.4364C32.99 38.4947 32.9557 38.5464 32.908 38.5832C32.8603 38.62 32.8018 38.64 32.7416 38.64C32.6814 38.64 32.6229 38.62 32.5752 38.5832C32.5275 38.5464 32.4933 38.4947 32.4779 38.4364V38.409Z" fill="currentColor"/>
<path d="M37.8777 31.3831C43.0071 25.6715 45.9175 19.1021 43.4801 11.6021C41.3428 4.30285 31.8114 3.27183 25.5087 5.58022C23.0418 6.41313 20.7756 7.75405 18.8555 9.51697C16.9353 11.2799 15.4036 13.4259 14.3585 15.8175C14.3285 15.8726 14.28 15.9152 14.2215 15.9377C14.1631 15.9602 14.0986 15.9611 14.0395 15.9402C13.9805 15.9194 13.9307 15.8782 13.8992 15.8239C13.8677 15.7697 13.8564 15.7059 13.8674 15.6441C16.7141 4.34847 31.0929 -2.49459 41.7066 2.87037C50.7468 7.33205 52.3384 20.1058 45.3445 27.1769C43.3725 29.3246 40.8917 30.9378 38.1323 31.8667C38.0739 31.885 38.0111 31.8831 37.9539 31.8612C37.8967 31.8394 37.8485 31.7989 37.8171 31.7463C37.7856 31.6936 37.7727 31.6319 37.7804 31.571C37.788 31.5101 37.8159 31.4536 37.8595 31.4105L37.8777 31.3831Z" fill="currentColor"/>
</svg>
