<svg width="30" height="30" viewBox="0 0 30 30" fill="none" xmlns="http://www.w3.org/2000/svg">
<path d="M0 30C0.471661 28.6062 0.92823 27.246 1.38857 25.8859C1.77345 24.7431 2.15832 23.604 2.55829 22.465C2.62998 22.2552 2.60734 22.0978 2.49792 21.9105C1.47158 20.1344 0.830124 18.231 0.626366 16.1889C0.222624 12.1573 1.28292 8.54527 3.84498 5.39787C6.10518 2.62517 9.02194 0.856635 12.5613 0.253384C17.908 -0.657112 22.4926 0.890357 26.2017 4.82835C28.0771 6.81795 29.2543 9.20472 29.7373 11.8912C30.458 15.8967 29.6996 19.6211 27.3488 22.9708C25.1565 26.0957 22.1492 28.0703 18.4099 28.9097C16.7345 29.2843 15.0328 29.348 13.3235 29.1157C11.5463 28.8759 9.87093 28.3439 8.28992 27.5046C8.19936 27.4559 8.0522 27.4596 7.95032 27.4896C5.34675 28.3102 2.74696 29.142 0.147158 29.97C0.113199 29.985 0.0792391 29.985 0 30ZM3.81857 26.2643C3.93177 26.2344 3.99969 26.2194 4.06383 26.1969C5.47505 25.7473 6.89003 25.3014 8.30124 24.848C8.45595 24.7993 8.56914 24.8031 8.70876 24.8967C10.3501 25.9384 12.1462 26.5566 14.0819 26.7402C16.1572 26.9388 18.1571 26.624 20.0815 25.8147C25.149 23.6865 28.1903 18.3359 27.4016 12.9216C27.0054 10.2051 25.8395 7.86333 23.8623 5.96366C20.9418 3.15348 17.4213 2.03691 13.4027 2.5952C11.2142 2.89869 9.24079 3.77172 7.54658 5.1918C4.15439 8.03194 2.66017 11.6589 3.10542 16.0503C3.30918 18.0774 4.05251 19.9134 5.21469 21.5845C5.27883 21.6781 5.30147 21.8468 5.26751 21.9592C5.11281 22.4725 4.92792 22.9783 4.75435 23.4879C4.44871 24.3984 4.1393 25.3089 3.81857 26.2643Z" fill="#1CB52B"/>
<path d="M10.4856 7.48011C10.7572 7.49885 11.0251 7.51383 11.2968 7.53257C11.5986 7.5513 11.7344 7.77235 11.8288 8.00839C12.0665 8.6041 12.2853 9.20731 12.5117 9.80676C12.6664 10.2114 12.8173 10.6198 12.9758 11.0244C13.0663 11.2567 13.0927 11.489 12.938 11.6913C12.6211 12.1034 12.3079 12.5193 11.9608 12.9052C11.6703 13.2274 11.6326 13.3548 11.8363 13.7295C12.9795 15.8276 14.6434 17.3674 16.8431 18.3266C17.1449 18.4577 17.3298 18.4427 17.5524 18.1992C17.9599 17.7571 18.3599 17.3075 18.7447 16.8467C19.0352 16.4982 19.1861 16.4158 19.5974 16.6219C20.6274 17.1352 21.6424 17.6784 22.6611 18.2104C22.8611 18.3153 22.9441 18.4839 22.9214 18.7087C22.7781 20.2748 22.3932 20.968 20.7029 21.6611C19.8653 22.0058 18.9824 22.0582 18.092 21.751C16.6545 21.2564 15.2207 20.7506 13.9492 19.9039C12.2589 18.7799 10.9232 17.3075 9.79134 15.644C9.18766 14.7523 8.58398 13.8569 8.22554 12.8303C7.78787 11.5789 7.75769 10.35 8.36514 9.13987C8.62926 8.61159 9.0141 8.17324 9.46309 7.79108C9.75361 7.54006 10.097 7.43141 10.4856 7.48011Z" fill="#1CB52B"/>
</svg>
