<svg width="30" height="30" viewBox="0 0 30 30" fill="none" xmlns="http://www.w3.org/2000/svg">
<path d="M0.375 29.1991C0.832494 27.8451 1.27535 26.5238 1.72186 25.2026C2.09518 24.0925 2.46849 22.986 2.85645 21.8795C2.92599 21.6756 2.90403 21.5228 2.79789 21.3408C1.80238 19.6155 1.18019 17.7665 0.982552 15.7828C0.590937 11.8664 1.61938 8.35764 4.10449 5.30022C6.2968 2.60677 9.12594 0.888788 12.559 0.302782C17.7451 -0.581688 22.192 0.921547 25.7897 4.74697C27.6087 6.6797 28.7506 8.99824 29.2191 11.608C29.9181 15.4989 29.1825 19.1169 26.9023 22.3708C24.7759 25.4064 21.8589 27.3246 18.2319 28.1399C16.6069 28.5039 14.9562 28.5658 13.2983 28.3401C11.5744 28.1072 9.94943 27.5903 8.41591 26.775C8.32807 26.7277 8.18533 26.7313 8.08651 26.7604C5.56115 27.5575 3.03944 28.3656 0.517738 29.17C0.484798 29.1845 0.451859 29.1845 0.375 29.1991ZM4.07887 25.5702C4.18867 25.5411 4.25455 25.5265 4.31677 25.5047C5.68559 25.0679 7.05807 24.6348 8.42689 24.1944C8.57695 24.1471 8.68675 24.1507 8.82217 24.2417C10.4142 25.2536 12.1564 25.8541 14.0339 26.0325C16.0469 26.2254 17.9867 25.9196 19.8533 25.1334C24.7686 23.066 27.7185 17.8684 26.9536 12.6089C26.5693 9.97007 25.4383 7.6952 23.5205 5.84982C20.6877 3.11998 17.273 2.03532 13.3751 2.57765C11.2524 2.87247 9.33822 3.72055 7.6949 5.10003C4.40461 7.85899 2.95526 11.3823 3.38714 15.6481C3.58478 17.6173 4.30579 19.4008 5.43305 21.0241C5.49527 21.1151 5.51723 21.2789 5.48429 21.3881C5.33423 21.8867 5.1549 22.3781 4.98654 22.8731C4.69008 23.7576 4.38997 24.6421 4.07887 25.5702Z" fill="#484E5B"/>
<path d="M10.5447 7.32159C10.8082 7.33978 11.068 7.35434 11.3315 7.37254C11.6243 7.39074 11.7561 7.60547 11.8475 7.83476C12.0781 8.41344 12.2904 8.99941 12.51 9.58173C12.66 9.9748 12.8064 10.3715 12.9601 10.7646C13.0479 10.9902 13.0735 11.2159 12.9235 11.4124C12.6161 11.8128 12.3123 12.2167 11.9756 12.5916C11.6938 12.9046 11.6572 13.0284 11.8549 13.3923C12.9638 15.4304 14.5777 16.9263 16.7113 17.858C17.004 17.9854 17.1834 17.9708 17.3993 17.7343C17.7945 17.3048 18.1825 16.8681 18.5557 16.4204C18.8375 16.0819 18.9839 16.0019 19.3828 16.202C20.3819 16.7006 21.3664 17.2284 22.3545 17.7452C22.5485 17.8471 22.629 18.0109 22.607 18.2292C22.4679 19.7506 22.0947 20.4239 20.4551 21.0972C19.6427 21.432 18.7863 21.483 17.9226 21.1845C16.5283 20.7041 15.1376 20.2128 13.9043 19.3903C12.2648 18.2984 10.9692 16.8681 9.87132 15.2521C9.28577 14.3859 8.70022 13.5161 8.35255 12.5188C7.92803 11.3032 7.89875 10.1095 8.48796 8.93389C8.74414 8.42072 9.11743 7.9949 9.55293 7.62367C9.83472 7.37982 10.1678 7.27427 10.5447 7.32159Z" fill="#484E5B"/>
</svg>
