<svg width="17" height="17" viewBox="0 0 17 17" fill="none" xmlns="http://www.w3.org/2000/svg">
<path d="M9.869 0C6.463 0 3.694 2.77 3.694 6.174C3.694 7.735 4.281 9.158 5.239 10.246L0 15.486L0.671 16.157L5.916 10.913C6.988 11.808 8.365 12.348 9.868 12.348C13.272 12.348 16.042 9.578 16.042 6.174C16.042 2.77 13.273 0 9.869 0ZM9.869 11.398C6.987 11.398 4.644 9.054 4.644 6.173C4.644 3.293 6.987 0.949 9.869 0.949C12.75 0.949 15.094 3.293 15.094 6.173C15.093 9.055 12.75 11.398 9.869 11.398Z" fill="#B3B3B3"/>
</svg>
