<svg width="63" height="58" viewBox="0 0 63 58" fill="none" xmlns="http://www.w3.org/2000/svg">
<path d="M61.9578 56.6105V50.8459C61.9578 46.7296 57.504 45.4803 54.1417 45.1471V45.0156C53.8129 45.0156 53.4315 45.0156 53.0238 45.0551C52.6161 45.0945 52.2348 45.02 51.906 45.0156V45.1471C48.5437 45.5022 44.0898 46.7516 44.0898 50.8459V56.6105H61.9578Z" stroke="#5394CE" stroke-width="2" stroke-miterlimit="10" fill="none"/>
<path d="M53.6749 31.9551H52.3642C50.0618 31.9551 48.1953 33.8216 48.1953 36.124V39.2802C48.1953 41.5827 50.0618 43.4491 52.3642 43.4491H53.6749C55.9774 43.4491 57.8438 41.5827 57.8438 39.2802V36.124C57.8438 33.8216 55.9774 31.9551 53.6749 31.9551Z" stroke="#5394CE" stroke-width="2" stroke-miterlimit="10" fill="none"/>
<path d="M40.5633 56.6105V50.8459C40.5633 46.7296 36.1094 45.4803 32.7471 45.1471V45.0156C32.414 45.0156 32.037 45.0156 31.6293 45.0551C31.2216 45.0945 30.8402 45.02 30.5071 45.0156V45.1471C27.1492 45.5022 22.6953 46.7516 22.6953 50.8459V56.6105H40.5633Z" stroke="#5394CE" stroke-width="2" stroke-miterlimit="10" fill="none"/>
<path d="M32.2804 31.9551H30.9697C28.6673 31.9551 26.8008 33.8216 26.8008 36.124V39.2802C26.8008 41.5827 28.6673 43.4491 30.9697 43.4491H32.2804C34.5828 43.4491 36.4493 41.5827 36.4493 39.2802V36.124C36.4493 33.8216 34.5828 31.9551 32.2804 31.9551Z" stroke="#5394CE" stroke-width="2" stroke-miterlimit="10" fill="none"/>
<path d="M22.679 37.0182V25.3049C22.679 21.1886 17.2783 19.9393 13.2014 19.6061V19.4746C12.8025 19.4746 12.3247 19.4746 11.8469 19.5141C11.369 19.5535 10.8912 19.479 10.4879 19.4746V19.6061C6.41107 19.9612 1.01474 21.2106 1.01474 25.3049V37.0313C1.01474 37.0313 0.541304 42.5417 4.96008 42.5417L6.27519 53.0888C6.51315 54.0667 7.04179 54.9495 7.79148 55.6209C8.54116 56.2924 9.47668 56.7209 10.4748 56.8501V56.8501H10.672C10.8342 56.872 11.0052 56.8807 11.1805 56.8939H11.2507C11.3778 56.8939 11.4962 56.8939 11.6277 56.8939H12.0354C12.1712 56.8939 12.2852 56.8939 12.4124 56.8939H12.4869C12.6578 56.8939 12.8332 56.8939 12.991 56.8501H13.1883C14.1863 56.7209 15.1219 56.2924 15.8715 55.6209C16.6212 54.9495 17.1499 54.0667 17.3879 53.0888L18.7293 42.5417C23.148 42.5285 22.679 37.0182 22.679 37.0182Z" stroke="#5394CE" stroke-width="2" stroke-miterlimit="10" fill="none"/>
<path d="M12.5031 6.40234H11.1923C8.88992 6.40234 7.02344 8.26882 7.02344 10.5712V13.7275C7.02344 16.0299 8.88992 17.8964 11.1923 17.8964H12.5031C14.8055 17.8964 16.672 16.0299 16.672 13.7275V10.5712C16.672 8.26882 14.8055 6.40234 12.5031 6.40234Z" stroke="#5394CE" stroke-width="2" stroke-miterlimit="10" fill="none"/>
<path d="M49.704 1.34375H29.8064C29.272 1.34318 28.7427 1.44801 28.2489 1.65224C27.7551 1.85648 27.3064 2.15611 26.9285 2.53398C26.5507 2.91185 26.251 3.36054 26.0468 3.85436C25.8425 4.34818 25.7377 4.87744 25.7383 5.41183V11.4043C25.7383 12.4833 26.1669 13.518 26.9298 14.2809C27.6927 15.0438 28.7275 15.4724 29.8064 15.4724H30.5647V18.6375L33.7298 15.4724H49.704C50.7821 15.4713 51.8158 15.0422 52.5777 14.2794C53.3397 13.5166 53.7677 12.4825 53.7677 11.4043V5.41183C53.7683 4.87781 53.6636 4.34891 53.4596 3.85537C53.2556 3.36184 52.9564 2.91334 52.579 2.53553C52.2016 2.15772 51.7534 1.858 51.2601 1.6535C50.7668 1.44901 50.238 1.34375 49.704 1.34375V1.34375Z" stroke="#5394CE" stroke-width="2" stroke-miterlimit="10" fill="none"/>
</svg>
