<svg width="43" height="44" viewBox="0 0 43 44" fill="none" xmlns="http://www.w3.org/2000/svg">
<path d="M0 43.3451C0.676069 41.3472 1.3305 39.3976 1.99035 37.448C2.54202 35.81 3.09369 34.1773 3.667 32.5446C3.76976 32.2438 3.73731 32.0183 3.58046 31.7497C2.10934 29.204 1.18988 26.4757 0.89782 23.5486C0.319105 17.7697 1.83891 12.5924 5.51132 8.08095C8.75104 4.10661 12.9319 1.57163 18.0051 0.706946C25.669 -0.59814 32.2404 1.61997 37.557 7.2646C40.245 10.1164 41.9325 13.5376 42.6248 17.3884C43.6578 23.1297 42.5707 28.4682 39.2012 33.2696C36.0588 37.7488 31.7482 40.5792 26.3883 41.7822C23.9869 42.3193 21.5477 42.4106 19.0976 42.0776C16.5502 41.7339 14.1488 40.9712 11.8826 39.7682C11.7528 39.6984 11.5419 39.7038 11.3958 39.7467C7.66392 40.9229 3.93743 42.1152 0.210934 43.3021C0.162257 43.3236 0.11358 43.3236 0 43.3451ZM5.47346 37.9905C5.63571 37.9475 5.73307 37.926 5.82501 37.8938C7.84781 37.2493 9.87602 36.6102 11.8988 35.9604C12.1206 35.8905 12.2828 35.8959 12.4829 36.0302C14.8357 37.5232 17.4101 38.4094 20.1847 38.6726C23.1594 38.9572 26.026 38.5061 28.7843 37.346C36.048 34.2954 40.4073 26.626 39.2769 18.8654C38.709 14.9716 37.0378 11.6149 34.2037 8.89192C30.0175 4.86388 24.9713 3.26341 19.2112 4.06365C16.0742 4.49867 13.2455 5.75005 10.8171 7.78556C5.95482 11.8566 3.81303 17.0554 4.45124 23.3499C4.7433 26.2555 5.80879 28.8871 7.47462 31.2825C7.56657 31.4167 7.59902 31.6584 7.55034 31.8195C7.32859 32.5553 7.06357 33.2804 6.81478 34.0108C6.37668 35.3159 5.93318 36.621 5.47346 37.9905Z" fill="#5394CE"/>
<path d="M15.0309 11.0632C15.4203 11.09 15.8042 11.1115 16.1936 11.1383C16.6263 11.1652 16.821 11.482 16.9562 11.8204C17.2969 12.6743 17.6106 13.5389 17.9351 14.3981C18.1568 14.9781 18.3731 15.5635 18.6003 16.1435C18.7301 16.4765 18.7679 16.8094 18.5462 17.0994C18.0919 17.6901 17.643 18.2863 17.1455 18.8394C16.729 19.3012 16.675 19.4838 16.967 20.0209C18.6057 23.0283 20.9907 25.2355 24.1436 26.6103C24.5763 26.7982 24.8413 26.7767 25.1603 26.4277C25.7444 25.794 26.3177 25.1495 26.8693 24.489C27.2858 23.9895 27.5021 23.8714 28.0916 24.1668C29.568 24.9025 31.0228 25.6812 32.483 26.4438C32.7696 26.5941 32.8886 26.8358 32.8562 27.158C32.6506 29.4028 32.099 30.3963 29.6762 31.3898C28.4755 31.8839 27.21 31.9591 25.9337 31.5187C23.8732 30.8099 21.8181 30.0849 19.9956 28.8712C17.5727 27.2601 15.6582 25.1495 14.0358 22.7651C13.1705 21.487 12.3052 20.2035 11.7914 18.732C11.164 16.9383 11.1208 15.1768 11.9915 13.4422C12.3701 12.685 12.9217 12.0567 13.5653 11.5089C13.9817 11.1491 14.4738 10.9933 15.0309 11.0632Z" fill="#5394CE"/>
</svg>
