<svg width="23" height="23" viewBox="0 0 23 23" fill="none" xmlns="http://www.w3.org/2000/svg">
<path d="M0 22.9989C0.361589 21.9303 0.711608 20.8876 1.06452 19.8449C1.35958 18.9688 1.65463 18.0955 1.96126 17.2223C2.01622 17.0615 1.99887 16.9408 1.91498 16.7972C1.12816 15.4356 0.636397 13.9764 0.48019 12.4109C0.17067 9.32012 0.983522 6.55105 2.94767 4.13817C4.68041 2.01253 6.91648 0.656721 9.62984 0.194252C13.7288 -0.503761 17.2435 0.682573 20.087 3.70155C21.5247 5.22684 22.4272 7.0566 22.7975 9.11617C23.35 12.1869 22.7685 15.0421 20.9664 17.6101C19.2857 20.0057 16.9802 21.5195 14.1135 22.163C12.8292 22.4502 11.5246 22.4991 10.2142 22.321C8.8517 22.1371 7.56734 21.7292 6.35529 21.0858C6.28587 21.0485 6.17305 21.0513 6.09495 21.0743C4.09898 21.7034 2.1059 22.3411 0.112816 22.9759C0.0867814 22.9874 0.060747 22.9874 0 22.9989ZM2.92743 20.135C3.01421 20.112 3.06628 20.1005 3.11545 20.0833C4.19733 19.7386 5.28209 19.3968 6.36397 19.0492C6.48257 19.0119 6.56935 19.0147 6.67638 19.0865C7.93471 19.8851 9.31164 20.3591 10.7956 20.4998C12.3866 20.6521 13.9197 20.4108 15.395 19.7903C19.2799 18.1587 21.6115 14.0568 21.0069 9.90611C20.7032 7.82356 19.8093 6.02826 18.2935 4.57191C16.0546 2.41755 13.3557 1.56155 10.2749 1.98955C8.59715 2.22222 7.08426 2.89151 5.78543 3.98018C3.18488 6.15752 2.03936 8.93808 2.3807 12.3046C2.53691 13.8586 3.10677 15.2662 3.99773 16.5473C4.04691 16.6191 4.06426 16.7484 4.03823 16.8345C3.91963 17.2281 3.77788 17.6158 3.64482 18.0065C3.41051 18.7045 3.17331 19.4025 2.92743 20.135Z" fill="#B3B3B3"/>
<path d="M8.03898 5.73332C8.24724 5.74768 8.4526 5.75917 8.66086 5.77353C8.89226 5.78789 8.99639 5.95736 9.06871 6.13831C9.25093 6.595 9.4187 7.05744 9.59225 7.517C9.71084 7.8272 9.82654 8.14028 9.94803 8.45049C10.0174 8.62857 10.0377 8.80665 9.9191 8.96175C9.67613 9.2777 9.43605 9.59652 9.16994 9.89237C8.94722 10.1394 8.9183 10.237 9.07449 10.5243C9.95092 12.1327 11.2265 13.3132 12.9128 14.0485C13.1442 14.1491 13.286 14.1376 13.4566 13.9509C13.769 13.612 14.0756 13.2673 14.3707 12.914C14.5934 12.6469 14.7091 12.5837 15.0244 12.7417C15.814 13.1352 16.5921 13.5516 17.3731 13.9595C17.5264 14.0399 17.59 14.1692 17.5727 14.3415C17.4627 15.5421 17.1677 16.0735 15.8719 16.6049C15.2297 16.8691 14.5529 16.9093 13.8703 16.6738C12.7682 16.2947 11.6691 15.9069 10.6943 15.2578C9.39845 14.3961 8.37451 13.2673 7.50676 11.992C7.04396 11.3084 6.58115 10.6219 6.30637 9.83492C5.97084 8.87558 5.9477 7.93348 6.41339 7.00574C6.61587 6.60075 6.9109 6.26469 7.25511 5.97172C7.47783 5.77928 7.74105 5.69598 8.03898 5.73332Z" fill="#B3B3B3"/>
</svg>
