<svg width="27" height="27" viewBox="0 0 27 27" fill="none" xmlns="http://www.w3.org/2000/svg">
<path d="M13.0667 0C5.85048 0 0 5.8499 0 13.0667C0 20.2835 5.8499 26.1327 13.0667 26.1327C20.2835 26.1327 26.1327 20.2828 26.1327 13.0667C26.1327 5.85062 20.2828 0 13.0667 0ZM20.9805 20.7043C19.6819 20.7043 18.3831 20.7029 17.0845 20.7069C16.9806 20.7069 16.9347 20.6735 16.8912 20.5817C16.1371 18.9883 15.3805 17.3961 14.6216 15.8051C14.5897 15.7382 14.5667 15.6831 14.4667 15.6835C13.3076 15.6881 12.1483 15.6865 10.9891 15.6867C10.9678 15.6867 10.9459 15.6888 10.9112 15.6908V20.6843H7.34645V5.89615C7.94187 5.89615 8.52994 5.89427 9.11845 5.89615C11.027 5.90335 12.9356 5.91142 14.8442 5.92035C15.9939 5.92525 17.0429 6.23959 17.9514 6.95761C18.8992 7.70603 19.4698 8.6815 19.6134 9.88213C19.7108 10.6964 19.7225 11.5147 19.5068 12.3168C19.2534 13.2602 18.7101 14.0168 17.9708 14.641C17.9444 14.6634 17.9182 14.686 17.8826 14.7162C18.9611 16.7055 20.0391 18.6936 21.129 20.7037L20.9805 20.7043Z" fill="#484E5B"/>
<path d="M15.5412 9.6449C15.1359 9.22495 14.6268 9.06316 14.0534 9.06446C13.0511 9.06677 12.0489 9.06446 11.0466 9.06446H10.918V12.6054H11.0823C12.0323 12.6054 12.9823 12.6069 13.9322 12.6043C14.1195 12.6043 14.3078 12.6018 14.4922 12.5755C14.9676 12.5092 15.3867 12.3242 15.6949 11.9387C15.9686 11.596 16.0308 11.1959 16.0118 10.7718C15.9935 10.3384 15.8433 9.9581 15.5412 9.6449Z" fill="#484E5B"/>
</svg>
