<svg width="25" height="25" viewBox="0 0 25 25" fill="none" xmlns="http://www.w3.org/2000/svg">
<path d="M0 24.617C0.38703 23.4733 0.761674 22.3572 1.13942 21.2411C1.45523 20.3034 1.77105 19.3687 2.09925 18.434C2.15808 18.2619 2.1395 18.1327 2.04971 17.979C1.20753 16.5216 0.681172 14.9598 0.513975 13.2841C0.182678 9.97586 1.05272 7.01196 3.15507 4.42932C5.00971 2.15413 7.4031 0.702926 10.3074 0.207919C14.6947 -0.539204 18.4567 0.730597 21.5003 3.96198C23.0391 5.59458 24.0051 7.55309 24.4014 9.75756C24.9928 13.0443 24.3705 16.1004 22.4415 18.8491C20.6426 21.4133 18.1749 23.0336 15.1065 23.7223C13.7318 24.0298 12.3354 24.082 10.9328 23.8914C9.47449 23.6946 8.09976 23.258 6.80243 22.5693C6.72812 22.5294 6.60737 22.5324 6.52377 22.557C4.38737 23.2304 2.25406 23.9129 0.120753 24.5924C0.0928871 24.6047 0.065021 24.6047 0 24.617ZM3.13339 21.5517C3.22628 21.5271 3.28201 21.5148 3.33465 21.4963C4.49264 21.1274 5.65373 20.7615 6.81172 20.3895C6.93867 20.3495 7.03156 20.3526 7.14612 20.4294C8.49298 21.2842 9.96679 21.7915 11.5552 21.9421C13.2581 22.1051 14.8991 21.8468 16.4782 21.1827C20.6364 19.4363 23.132 15.0458 22.4849 10.6031C22.1598 8.374 21.203 6.45239 19.5806 4.89358C17.1841 2.58764 14.2953 1.67142 10.9978 2.12953C9.20202 2.37857 7.58269 3.09495 6.19247 4.26022C3.40896 6.59075 2.18285 9.56694 2.5482 13.1703C2.7154 14.8337 3.32536 16.3402 4.279 17.7115C4.33164 17.7884 4.35021 17.9267 4.32235 18.019C4.1954 18.4402 4.04369 18.8552 3.90126 19.2734C3.65046 20.0205 3.39657 20.7676 3.13339 21.5517Z" fill="#484E5B"/>
<path d="M8.60409 6.13628C8.827 6.15165 9.04682 6.16395 9.26973 6.17932C9.51741 6.19469 9.62887 6.37608 9.70627 6.56976C9.90132 7.05858 10.0809 7.55355 10.2666 8.04545C10.3936 8.37748 10.5174 8.71259 10.6475 9.04462C10.7218 9.23523 10.7434 9.42584 10.6165 9.59185C10.3564 9.93003 10.0995 10.2713 9.81463 10.5879C9.57624 10.8523 9.54528 10.9569 9.71246 11.2643C10.6506 12.9859 12.0159 14.2495 13.8209 15.0365C14.0685 15.1441 14.2203 15.1318 14.4029 14.932C14.7373 14.5692 15.0655 14.2003 15.3813 13.8222C15.6196 13.5362 15.7435 13.4686 16.081 13.6377C16.9262 14.0589 17.759 14.5047 18.5949 14.9412C18.759 15.0273 18.8271 15.1657 18.8085 15.3501C18.6909 16.6352 18.3751 17.204 16.9881 17.7727C16.3008 18.0555 15.5763 18.0986 14.8456 17.8465C13.6661 17.4407 12.4896 17.0256 11.4462 16.3308C10.0592 15.4085 8.96323 14.2003 8.03443 12.8353C7.53906 12.1036 7.0437 11.3688 6.74958 10.5265C6.39044 9.49962 6.36568 8.49123 6.86413 7.49822C7.08085 7.06473 7.39665 6.70503 7.76507 6.39145C8.00347 6.18547 8.2852 6.09631 8.60409 6.13628Z" fill="#484E5B"/>
</svg>
