<svg width="26" height="26" viewBox="0 0 26 26" fill="none" xmlns="http://www.w3.org/2000/svg">
<path d="M0 15.4267V12.918C0.22442 12.9245 0.449051 12.9289 0.673471 12.9391C1.51504 12.9732 2.35662 13.0067 3.19798 13.0445C4.056 13.0832 4.91129 13.1539 5.76193 13.2764C6.4103 13.3689 7.05044 13.4956 7.67308 13.7007C9.43574 14.2815 10.7232 15.3974 11.473 17.1047C11.9729 18.2431 12.1444 19.457 12.2627 20.6804C12.3015 21.0809 12.3279 21.4836 12.3524 21.8856C12.3831 22.3896 12.4097 22.8938 12.4321 23.3984C12.4551 23.91 12.4728 24.4219 12.4899 24.934C12.4951 25.09 12.4899 25.2466 12.4899 25.4102H12.3897C11.5365 25.4062 10.6831 25.4072 9.82996 25.3969C8.4712 25.3802 7.1133 25.3402 5.76446 25.1559C4.93196 25.0423 4.11295 24.8726 3.33318 24.5486C2.72763 24.2969 2.17122 23.968 1.72512 23.4789C1.21638 22.9211 0.902529 22.2547 0.675157 21.5434C0.321021 20.4327 0.181815 19.2846 0.111789 18.1282C0.0594806 17.2669 0.0447144 16.4031 0.0124436 15.5405C0.0118108 15.5013 0.00442933 15.4633 0 15.4267Z" fill="#484E5B"/>
<path d="M12.918 0H15.5304C15.5642 0.00647424 15.5983 0.0109871 15.6327 0.0135166C16.977 0.0365378 18.3204 0.0732868 19.655 0.256188C20.3854 0.356299 21.1029 0.509632 21.8015 0.75336C23.1703 1.22962 24.113 2.13146 24.609 3.50343C24.9394 4.41519 25.126 5.35758 25.2111 6.3175C25.2942 7.25524 25.3504 8.19537 25.3798 9.1379C25.4125 10.2239 25.4009 11.3112 25.4102 12.3978C25.4102 12.435 25.4102 12.4724 25.4102 12.488C25.0414 12.488 24.6872 12.4988 24.3338 12.4859C23.6258 12.4601 22.9177 12.4257 22.2103 12.3866C21.6855 12.3575 21.1601 12.3288 20.6374 12.2751C20.1335 12.2236 19.6314 12.1484 19.1309 12.0694C18.4956 11.9713 17.8736 11.8013 17.2767 11.5625C16.0035 11.0465 14.9995 10.2108 14.2971 9.02364C13.7101 8.03268 13.4394 6.93907 13.28 5.81336C13.2167 5.35906 13.1689 4.90181 13.1278 4.44455C13.0856 3.97251 13.0544 3.49921 13.027 3.02611C13.004 2.6261 12.9911 2.22565 12.9772 1.82521C12.9555 1.21484 12.9374 0.60763 12.918 0Z" fill="#484E5B"/>
<path d="M9.90096 0H12.4922C12.4903 0.152661 12.4922 0.305322 12.4861 0.457769C12.4541 1.27331 12.4228 2.08906 12.3851 2.90439C12.3623 3.39308 12.3404 3.88262 12.2947 4.3696C12.24 4.9506 12.1682 5.53054 12.0895 6.10899C12.0051 6.73593 11.8567 7.35234 11.6467 7.94838C11.1424 9.37201 10.2697 10.4939 8.97114 11.2609C7.89585 11.896 6.70627 12.1534 5.48971 12.3118C5.12896 12.3587 4.76631 12.3939 4.40345 12.4239C3.92849 12.4633 3.45297 12.4969 2.97689 12.5246C2.58113 12.5476 2.18475 12.5602 1.78858 12.5745C1.19231 12.5958 0.596052 12.6146 0 12.6342V10.0989C0.00463854 10.0534 0.0128617 10.008 0.0134942 9.96261C0.039217 8.45732 0.0809633 6.95332 0.318583 5.46381C0.445089 4.6634 0.637377 3.88112 0.969454 3.1385C1.34518 2.29844 1.90517 1.62895 2.70954 1.17694C3.2436 0.87716 3.81182 0.667784 4.40197 0.518322C5.42709 0.258841 6.4735 0.148396 7.5254 0.0918949C8.26482 0.0522372 9.00572 0.0400837 9.74599 0.0149245C9.79659 0.0132188 9.84846 0.00511712 9.90096 0Z" fill="#484E5B"/>
<path d="M25.4102 12.92C25.4102 12.9622 25.4102 13.0006 25.4102 13.0384C25.4022 14.1139 25.4129 15.1881 25.3802 16.262C25.3514 17.2088 25.2952 18.1546 25.2115 19.0994C25.1318 20.0158 24.9635 20.9197 24.6509 21.7903C24.4309 22.4019 24.1392 22.976 23.6997 23.4629C23.2506 23.9602 22.6894 24.2937 22.0775 24.5489C21.3903 24.8357 20.6705 25.0006 19.9375 25.1139C18.4936 25.3368 17.0374 25.3775 15.5802 25.3967C14.7271 25.4079 13.8737 25.4062 13.0203 25.4102H12.9199C12.9199 25.2495 12.9155 25.0964 12.9199 24.9435C12.9372 24.4384 12.9543 23.933 12.9784 23.4281C13.0081 22.8045 13.038 22.1807 13.0802 21.5577C13.1136 21.0682 13.1549 20.5789 13.2118 20.0919C13.3384 19.0189 13.5348 17.9618 13.9946 16.9723C14.7155 15.4222 15.8947 14.3689 17.4945 13.7807C18.1018 13.5592 18.7311 13.4037 19.3717 13.3167C19.9399 13.2381 20.5093 13.1655 21.0801 13.1113C21.5652 13.0654 22.0526 13.0443 22.5394 13.0213C23.3421 12.9835 24.1453 12.9523 24.9485 12.9207C25.0999 12.915 25.2501 12.92 25.4102 12.92Z" fill="#484E5B"/>
</svg>
