<svg width="28" height="28" viewBox="0 0 28 28" fill="none" xmlns="http://www.w3.org/2000/svg">
<path d="M28 14.0939C27.8722 21.6242 22.0551 27.9733 13.9926 27.9999C6.56475 28.0232 0.0817776 22.2754 0.000736313 14.1009C-0.0762697 6.4373 5.89523 0.00606434 13.9896 6.66622e-06C22.2659 -0.0077337 28 6.72638 28 14.0939ZM13.7636 18.4867C13.8215 18.5284 13.8672 18.5604 13.9123 18.5934C14.9833 19.3886 16.0516 20.1872 17.128 20.9747C17.2838 21.0832 17.4566 21.1649 17.6392 21.2167C17.9838 21.321 18.2498 21.1921 18.3907 20.8603C18.4633 20.6842 18.5189 20.5017 18.5568 20.3151C19.2518 17.0538 19.9444 13.7919 20.6347 10.5293C20.716 10.1456 20.8028 9.76229 20.87 9.37594C20.9689 8.79373 20.5698 8.20984 19.8118 8.52282C18.9681 8.87114 18.1093 9.18311 17.2578 9.5119C14.4574 10.5942 11.657 11.6766 8.85677 12.7592C7.98448 13.0957 7.11018 13.4295 6.24327 13.7802C6.06258 13.8536 5.90008 13.9656 5.76711 14.1083C5.57913 14.3153 5.64437 14.5425 5.89187 14.6764C5.9462 14.7053 6.00318 14.729 6.06202 14.7471C7.18718 15.09 8.31504 15.4279 9.43616 15.7779C9.61439 15.8334 9.74654 15.8116 9.90224 15.7106C12.5193 14.0542 15.1397 12.4013 17.7632 10.752C17.8389 10.7045 17.9241 10.6743 18.0128 10.6635C18.0763 10.6571 18.1449 10.6999 18.2115 10.7207C18.1919 10.7851 18.1678 10.848 18.1392 10.9089C18.1187 10.9462 18.076 10.9715 18.043 11.0018C15.9415 12.9234 13.8411 14.8459 11.7416 16.7693C11.6796 16.8295 11.64 16.909 11.6293 16.9948C11.549 17.9388 11.4767 18.8838 11.4033 19.8285C11.3879 20.0277 11.3758 20.2276 11.36 20.4625C11.4904 20.4241 11.6011 20.413 11.6875 20.3615C11.8556 20.2606 12.0238 20.1573 12.1653 20.025C12.7 19.5226 13.2239 19.0083 13.7636 18.4867Z" fill="#484E5B"/>
</svg>
