<svg width="27" height="27" viewBox="0 0 27 27" fill="none" xmlns="http://www.w3.org/2000/svg">
<path fill-rule="evenodd" clip-rule="evenodd" d="M4.41544 7.97138C4.55694 14.7845 7.96351 18.8672 13.9355 18.8672H14.2788V14.981C16.4747 15.1985 18.1334 16.8154 18.799 18.8776H21.9016C21.5854 17.7008 21.0225 16.6045 20.2505 15.6617C19.4784 14.7189 18.5147 13.9509 17.4233 13.4088C18.8121 12.5991 20.7774 10.6337 21.2465 7.97138H18.4243C17.8111 10.1332 16.0004 12.0986 14.2788 12.2846V7.97138H11.4566V15.5261C9.71134 15.0885 7.50493 12.9712 7.40798 7.97138H4.41544ZM1.83431 1.83431C0 3.66862 0 6.64019 0 12.5781V13.6263C0 19.5563 0 22.52 1.83431 24.3701C3.66861 26.2201 6.64281 26.2044 12.5781 26.2044H13.6263C19.5563 26.2044 22.5227 26.2044 24.3701 24.3701C26.2175 22.5358 26.2044 19.5642 26.2044 13.6263V12.5781C26.2044 6.64805 26.2044 3.68434 24.3701 1.83431C22.5358 -0.0157182 19.5642 4.39175e-06 13.6263 4.39175e-06H12.5781C6.64281 4.39175e-06 3.67647 4.37333e-06 1.83431 1.83431Z" fill="#484E5B"/>
</svg>
